<?xml version="1.0" encoding="UTF-8" standalone="no"?>
<!-- Generator: Adobe Illustrator 19.0.0, SVG Export Plug-In . SVG Version: 6.00 Build 0)  -->
<svg id="Capa_1" style="enable-background:new 100 -10 219 41" xmlns="http://www.w3.org/2000/svg" xml:space="preserve" viewBox="100 -10 219 41" version="1.1" y="0px" x="0px" xmlns:xlink="http://www.w3.org/1999/xlink">
<style type="text/css">
	.st0{fill:#E8EABC;}
	.st1{fill:#C9D5B4;}
	.st2{fill:#B0C68E;}
	.st3{fill:#5D9A91;}
</style>
<g id="XMLID_5_">
	<path id="XMLID_238_" d="m163.7 0.9c-2.5 0-4.8 0.7-6.8 2v-7.7h-5.7v28.8h5.7c2 1.3 4.3 2 6.8 2 6.9 0 12.5-5.6 12.5-12.5s-5.6-12.6-12.5-12.6zm0 19.2c-3.7 0-6.7-2.9-6.8-6.6v-0.4c0.1-3.6 3.1-6.6 6.8-6.6s6.8 3 6.8 6.8-3 6.8-6.8 6.8z"/>
	<path id="XMLID_252_" d="m198.5 0.9c-6.9 0-12.5 5.6-12.5 12.5s5.6 12.5 12.5 12.5c6.9 0 12.5-5.6 12.5-12.5s-5.6-12.5-12.5-12.5zm0 19.2c-3.7 0-6.8-3-6.8-6.8s3-6.8 6.8-6.8c3.7 0 6.8 3 6.8 6.8-0.1 3.8-3.1 6.8-6.8 6.8z"/>
	<path id="XMLID_255_" d="m286.2 2.8c-2-1.3-4.3-2-6.8-2-6.9 0-12.5 5.6-12.5 12.5s5.6 12.5 12.5 12.5c2.5 0 4.8-0.7 6.8-2h5.7v-28.7h-5.7v7.7zm0 10.8c-0.1 3.6-3.1 6.6-6.8 6.6s-6.8-3-6.8-6.8 3-6.8 6.8-6.8c3.7 0 6.7 2.9 6.8 6.6v0.4z"/>
	<path id="XMLID_258_" d="m225.5 0.9c-6.9 0-12.5 5.6-12.5 12.5s5.6 12.5 12.5 12.5 12.5-5.6 12.5-12.5-5.6-12.5-12.5-12.5zm0 19.2c-3.7 0-6.8-3-6.8-6.8s3-6.8 6.8-6.8c3.7 0 6.8 3 6.8 6.8-0.1 3.8-3.1 6.8-6.8 6.8z"/>
	<rect id="XMLID_259_" y="-4.9" x="178.2" height="30.8" width="5.7"/>
	<path id="XMLID_260_" d="m252.5 0.9c-2.5 0-4.8 0.7-6.8 2h-5.7v23h5.7v-12.5c0-3.7 3-6.8 6.8-6.8 3.7 0 6.8 3 6.8 6.8v12.5h5.7v-12.5c0-6.9-5.6-12.5-12.5-12.5z"/>
	<path id="XMLID_263_" d="m319 13.5c0.1-6.9-5.5-12.6-12.4-12.7s-12.6 5.5-12.7 12.4 5.5 12.6 12.4 12.7c2.7 0 5.2-0.8 7.2-2.2l-3.9-4.3c-1 0.5-2.1 0.8-3.3 0.8-2.4 0-4.4-1.3-5.6-3.1l18.3-3.6v0zm-19.2-1.4c0.6-3.1 3.4-5.5 6.7-5.5 2.4 0 4.4 1.3 5.6 3.1l-12.3 2.4z"/>
</g>
<g id="XMLID_147_">
	<path id="XMLID_146_" d="m136.5-9.4h-33.2c-1.8 0-3.3 1.5-3.3 3.3v33.2c0 1.8 1.5 3.3 3.3 3.3h33.2c1.8 0 3.3-1.5 3.3-3.3v-33.2c0-1.8-1.5-3.3-3.3-3.3z" class="st0"/>
	<polygon id="XMLID_145_" points="139.8 26.6 139.8 13.4 126 18.6" class="st1"/>
	<path id="XMLID_144_" d="m100 3.6v23.4c0 0.5 0.1 0.9 0.3 1.3l25.7-9.8-26-14.9z" class="st2"/>
	<path id="XMLID_143_" d="m139.8 27.1v-0.5l-13.8-8-25.7 9.8c0.5 1.2 1.7 2 3 2h33.2c1.8 0 3.3-1.5 3.3-3.3z" class="st3"/>
</g>
</svg>
